<svg id="Layer_1" data-name="Layer 1" xmlns="http://www.w3.org/2000/svg" viewBox="0 0 41.92 4.49"><title>DGViewer</title><path d="M4.35,23.88h.26a1.7,1.7,0,0,1,1,.29,1.2,1.2,0,0,1,.39.5,1.37,1.37,0,0,1,.13.49h.87a2.36,2.36,0,0,0-.21-.83,2,2,0,0,0-.61-.75,1.85,1.85,0,0,0-.71-.33,4.41,4.41,0,0,0-.89-.09H3.51v2h.84Z" transform="translate(-3.33 -23.07)" style="fill:#fff"/><path d="M9,23.16l-.84.24v1.76H9Z" transform="translate(-3.33 -23.07)" style="fill:#fff"/><path d="M11.37,24.21a1.41,1.41,0,0,1,.46-.3,1.37,1.37,0,0,1,.53-.08A1.29,1.29,0,0,1,13,24a1.12,1.12,0,0,1,.5.51l.73-.39a2,2,0,0,0-.8-.79,2.15,2.15,0,0,0-1-.22,2.28,2.28,0,0,0-1.69.65,2.18,2.18,0,0,0-.63,1.44H11A1.46,1.46,0,0,1,11.37,24.21Z" transform="translate(-3.33 -23.07)" style="fill:#fff"/><path d="M16.4,23.16l-.84.24v1.76h.84Z" transform="translate(-3.33 -23.07)" style="fill:#fff"/><path d="M19.25,23.88H20l.24-.72H17.45v.72h1v1.28h.84Z" transform="translate(-3.33 -23.07)" style="fill:#fff"/><path d="M22.74,24.33l.33.83h.84l-.83-2h-.66l-.86,2h.85Z" transform="translate(-3.33 -23.07)" style="fill:#fff"/><path d="M26.54,23.16H25.7v2h.84Z" transform="translate(-3.33 -23.07)" style="fill:#fff"/><path d="M31.67,24.21a1.41,1.41,0,0,1,.46-.3,1.37,1.37,0,0,1,.53-.08,1.29,1.29,0,0,1,.61.13,1.17,1.17,0,0,1,.5.51l.73-.39a2,2,0,0,0-.81-.79,2.08,2.08,0,0,0-1-.22,2.28,2.28,0,0,0-1.69.65,2.18,2.18,0,0,0-.63,1.44h.87A1.46,1.46,0,0,1,31.67,24.21Z" transform="translate(-3.33 -23.07)" style="fill:#fff"/><path d="M36.88,24.24a1.5,1.5,0,0,1,2.06,0,1.5,1.5,0,0,1,.39.92h.87a2.16,2.16,0,0,0-.64-1.46,2.48,2.48,0,0,0-3.3,0,2.16,2.16,0,0,0-.64,1.46h.87A1.5,1.5,0,0,1,36.88,24.24Z" transform="translate(-3.33 -23.07)" style="fill:#fff"/><path d="M42.13,23.88h.26a1.76,1.76,0,0,1,1.06.29,1.28,1.28,0,0,1,.39.5,1.61,1.61,0,0,1,.13.49h.86a2.16,2.16,0,0,0-.21-.83,2,2,0,0,0-.61-.75,1.85,1.85,0,0,0-.71-.33,4.38,4.38,0,0,0-.88-.09H41.3v2h.83Z" transform="translate(-3.33 -23.07)" style="fill:#fff"/><path d="M5.87,26a1.22,1.22,0,0,1-.39.48,1.74,1.74,0,0,1-1.05.29H4.17v-.87H3.33v1.59H4.44a4.12,4.12,0,0,0,.86-.09A2,2,0,0,0,6,27.05a1.91,1.91,0,0,0,.8-1.18h-.9Z" transform="translate(-3.33 -23.07)" style="fill:#19f8fe"/><path d="M8.81,25.87H8v1.59h.84Z" transform="translate(-3.33 -23.07)" style="fill:#19f8fe"/><path d="M13.39,25.88a1.13,1.13,0,0,1-.41.66,1.39,1.39,0,0,1-.84.25,1.27,1.27,0,0,1-.51-.08,1.33,1.33,0,0,1-.44-.28,1.43,1.43,0,0,1-.35-.56H10A2.15,2.15,0,0,0,10.54,27a2.11,2.11,0,0,0,1.56.57A2,2,0,0,0,13.62,27a2.11,2.11,0,0,0,.57-1.12" transform="translate(-3.33 -23.07)" style="fill:#19f8fe"/><path d="M16.22,25.87h-.83v1.59h.83Z" transform="translate(-3.33 -23.07)" style="fill:#19f8fe"/><path d="M19.07,25.87h-.84v1.59h.84Z" transform="translate(-3.33 -23.07)" style="fill:#19f8fe"/><path d="M22,25.87h-.87l-.68,1.59h.9l.38-.9h1.73l.38.9h.91L24,25.87H22Z" transform="translate(-3.33 -23.07)" style="fill:#19f8fe"/><path d="M25.52,27.46h1.93l.23-.72H26.36v-.87h-.84Z" transform="translate(-3.33 -23.07)" style="fill:#19f8fe"/><path d="M33.69,25.88a1.13,1.13,0,0,1-.41.66,1.39,1.39,0,0,1-.84.25,1.24,1.24,0,0,1-.51-.08,1.33,1.33,0,0,1-.44-.28,1.43,1.43,0,0,1-.35-.56h-.89A2.15,2.15,0,0,0,30.84,27a2.1,2.1,0,0,0,1.55.57A2.06,2.06,0,0,0,33.92,27a2.11,2.11,0,0,0,.57-1.12" transform="translate(-3.33 -23.07)" style="fill:#19f8fe"/><path d="M38.76,26.38a1.4,1.4,0,0,1-.61.38,1.46,1.46,0,0,1-.72,0,1.49,1.49,0,0,1-.64-.32,1.44,1.44,0,0,1-.4-.6H35.5a2.1,2.1,0,0,0,.58,1.06,2.51,2.51,0,0,0,3.3,0A2,2,0,0,0,40,25.87h-.89A1.35,1.35,0,0,1,38.76,26.38Z" transform="translate(-3.33 -23.07)" style="fill:#19f8fe"/><path d="M43.65,26a1.14,1.14,0,0,1-.39.48,1.74,1.74,0,0,1-1,.29H42v-.87h-.83v1.59h1.1a4.28,4.28,0,0,0,.87-.09,2,2,0,0,0,.7-.32,2,2,0,0,0,.81-1.18h-.91A.42.42,0,0,1,43.65,26Z" transform="translate(-3.33 -23.07)" style="fill:#19f8fe"/><path d="M6.11,26a1.22,1.22,0,0,1-.39.48,1.74,1.74,0,0,1-1,.29H4.41v-.87H3.57v1.59H4.68a4.12,4.12,0,0,0,.86-.09,2,2,0,0,0,.71-.32,1.91,1.91,0,0,0,.8-1.18h-.9Z" transform="translate(-3.33 -23.07)" style="fill:#fff"/><path d="M9.05,25.87H8.21v1.59h.84Z" transform="translate(-3.33 -23.07)" style="fill:#fff"/><path d="M13.63,25.88a1.13,1.13,0,0,1-.41.66,1.39,1.39,0,0,1-.84.25,1.27,1.27,0,0,1-.51-.08,1.33,1.33,0,0,1-.44-.28,1.43,1.43,0,0,1-.35-.56h-.89A2.15,2.15,0,0,0,10.78,27a2.11,2.11,0,0,0,1.56.57A2.05,2.05,0,0,0,13.86,27a2.11,2.11,0,0,0,.57-1.12" transform="translate(-3.33 -23.07)" style="fill:#fff"/><path d="M16.46,25.87h-.83v1.59h.83Z" transform="translate(-3.33 -23.07)" style="fill:#fff"/><path d="M19.31,25.87h-.84v1.59h.84Z" transform="translate(-3.33 -23.07)" style="fill:#fff"/><path d="M22.19,25.87h-.87l-.69,1.59h.91l.38-.9h1.73l.38.9h.9l-.66-1.59H22.19Z" transform="translate(-3.33 -23.07)" style="fill:#fff"/><path d="M25.76,27.46h1.93l.23-.72H26.6v-.87h-.84Z" transform="translate(-3.33 -23.07)" style="fill:#fff"/><path d="M33.93,25.88a1.13,1.13,0,0,1-.41.66,1.39,1.39,0,0,1-.84.25,1.24,1.24,0,0,1-.51-.08,1.33,1.33,0,0,1-.44-.28,1.43,1.43,0,0,1-.35-.56h-.89A2.15,2.15,0,0,0,31.08,27a2.1,2.1,0,0,0,1.55.57A2.06,2.06,0,0,0,34.16,27a2.11,2.11,0,0,0,.57-1.12" transform="translate(-3.33 -23.07)" style="fill:#fff"/><path d="M39,26.38a1.4,1.4,0,0,1-.61.38,1.46,1.46,0,0,1-.72,0,1.49,1.49,0,0,1-.64-.32,1.44,1.44,0,0,1-.4-.6h-.89a2,2,0,0,0,.58,1.06,2.51,2.51,0,0,0,3.3,0,2,2,0,0,0,.58-1.06h-.89A1.49,1.49,0,0,1,39,26.38Z" transform="translate(-3.33 -23.07)" style="fill:#fff"/><path d="M43.89,26a1.14,1.14,0,0,1-.39.48,1.74,1.74,0,0,1-1,.29h-.26v-.87h-.83v1.59h1.1a4.28,4.28,0,0,0,.87-.09,2,2,0,0,0,.7-.32,2,2,0,0,0,.81-1.18h-.91A.42.42,0,0,1,43.89,26Z" transform="translate(-3.33 -23.07)" style="fill:#fff"/><path d="M4.53,25.16H3.69v.71h.84Z" transform="translate(-3.33 -23.07)" style="fill:#e500f7"/><path d="M6.37,25.31a1.78,1.78,0,0,1-.1.56h.9a2.6,2.6,0,0,0,.06-.56v-.15H6.36A.76.76,0,0,1,6.37,25.31Z" transform="translate(-3.33 -23.07)" style="fill:#e500f7"/><path d="M9.16,25.16H8.33v.71h.83Z" transform="translate(-3.33 -23.07)" style="fill:#e500f7"/><path d="M14.55,25.87a3.68,3.68,0,0,0,.06-.66v-.05h-2l.23.71Z" transform="translate(-3.33 -23.07)" style="fill:#e500f7"/><path d="M10.31,25.87h.89a1.89,1.89,0,0,1-.08-.53,1.09,1.09,0,0,1,0-.18h-.87v.16A3.31,3.31,0,0,0,10.31,25.87Z" transform="translate(-3.33 -23.07)" style="fill:#e500f7"/><path d="M16.58,25.16h-.84v.71h.84Z" transform="translate(-3.33 -23.07)" style="fill:#e500f7"/><path d="M19.43,25.16h-.84v.71h.84Z" transform="translate(-3.33 -23.07)" style="fill:#e500f7"/><path d="M23.53,25.87h.86l-.3-.71h-.85Z" transform="translate(-3.33 -23.07)" style="fill:#e500f7"/><path d="M22.3,25.87l.29-.71h-.85l-.31.71Z" transform="translate(-3.33 -23.07)" style="fill:#e500f7"/><path d="M26.71,25.16h-.83v.71h.83Z" transform="translate(-3.33 -23.07)" style="fill:#e500f7"/><path d="M34.85,25.87a3.68,3.68,0,0,0,.06-.66v-.05h-2l.23.71Z" transform="translate(-3.33 -23.07)" style="fill:#e500f7"/><path d="M30.61,25.87h.89a1.89,1.89,0,0,1-.08-.53,1.09,1.09,0,0,1,0-.18h-.87v.16A2.5,2.5,0,0,0,30.61,25.87Z" transform="translate(-3.33 -23.07)" style="fill:#e500f7"/><path d="M35.86,25.87h.89a1.77,1.77,0,0,1-.09-.56.76.76,0,0,1,0-.15H35.8v.15A2.6,2.6,0,0,0,35.86,25.87Z" transform="translate(-3.33 -23.07)" style="fill:#e500f7"/><path d="M39.52,25.31a1.77,1.77,0,0,1-.09.56h.89a2.6,2.6,0,0,0,.06-.56v-.15h-.87A.76.76,0,0,1,39.52,25.31Z" transform="translate(-3.33 -23.07)" style="fill:#e500f7"/><path d="M42.31,25.16h-.83v.71h.83Z" transform="translate(-3.33 -23.07)" style="fill:#e500f7"/><path d="M44.15,25.31a1.54,1.54,0,0,1-.1.56H45a2.1,2.1,0,0,0,.07-.56s0-.1,0-.15h-.86Z" transform="translate(-3.33 -23.07)" style="fill:#e500f7"/><path d="M4.77,25.16H3.93v.71h.84Z" transform="translate(-3.33 -23.07)" style="fill:#fff"/><path d="M6.61,25.31a1.55,1.55,0,0,1-.11.56h.91a2.6,2.6,0,0,0,.06-.56v-.15H6.6A.76.76,0,0,1,6.61,25.31Z" transform="translate(-3.33 -23.07)" style="fill:#fff"/><path d="M9.4,25.16H8.57v.71H9.4Z" transform="translate(-3.33 -23.07)" style="fill:#fff"/><path d="M14.79,25.87a3.68,3.68,0,0,0,.06-.66v-.05h-2l.23.71Z" transform="translate(-3.33 -23.07)" style="fill:#fff"/><path d="M10.55,25.87h.89a1.89,1.89,0,0,1-.08-.53,1.09,1.09,0,0,1,0-.18H10.5v.16A2.5,2.5,0,0,0,10.55,25.87Z" transform="translate(-3.33 -23.07)" style="fill:#fff"/><path d="M16.82,25.16H16v.71h.84Z" transform="translate(-3.33 -23.07)" style="fill:#fff"/><path d="M19.67,25.16h-.84v.71h.84Z" transform="translate(-3.33 -23.07)" style="fill:#fff"/><path d="M23.77,25.87h.86l-.3-.71h-.85Z" transform="translate(-3.33 -23.07)" style="fill:#fff"/><path d="M22.54,25.87l.29-.71H22l-.31.71Z" transform="translate(-3.33 -23.07)" style="fill:#fff"/><path d="M27,25.16h-.83v.71H27Z" transform="translate(-3.33 -23.07)" style="fill:#fff"/><path d="M35.09,25.87a3.68,3.68,0,0,0,.06-.66v-.05h-2l.23.71Z" transform="translate(-3.33 -23.07)" style="fill:#fff"/><path d="M30.85,25.87h.89a1.59,1.59,0,0,1-.08-.53,1.09,1.09,0,0,1,0-.18H30.8v.16A2,2,0,0,0,30.85,25.87Z" transform="translate(-3.33 -23.07)" style="fill:#fff"/><path d="M36.09,25.87H37a1.77,1.77,0,0,1-.09-.56v-.15H36v.15A2.09,2.09,0,0,0,36.09,25.87Z" transform="translate(-3.33 -23.07)" style="fill:#fff"/><path d="M39.76,25.31a1.77,1.77,0,0,1-.09.56h.89a2.6,2.6,0,0,0,.06-.56.76.76,0,0,0,0-.15h-.86C39.75,25.21,39.76,25.26,39.76,25.31Z" transform="translate(-3.33 -23.07)" style="fill:#fff"/><path d="M42.55,25.16h-.84v.71h.84Z" transform="translate(-3.33 -23.07)" style="fill:#fff"/><path d="M44.39,25.31a1.54,1.54,0,0,1-.1.56h.9a2.6,2.6,0,0,0,.06-.56v-.15h-.87A.76.76,0,0,1,44.39,25.31Z" transform="translate(-3.33 -23.07)" style="fill:#fff"/></svg>